<?xml version="1.0" encoding="UTF-8" standalone="no"?>
<!DOCTYPE svg PUBLIC "-//W3C//DTD SVG 1.1//EN"
 "http://www.w3.org/Graphics/SVG/1.1/DTD/svg11.dtd">
<!-- Generated by graphviz version 14.1.1 (20251213.1925)
 -->
<!-- Title: asm330lhhx_mag_offset_get Pages: 1 -->
<svg width="702pt" height="82pt"
 viewBox="0.00 0.00 702.00 82.00" xmlns="http://www.w3.org/2000/svg" xmlns:xlink="http://www.w3.org/1999/xlink">
<g id="graph0" class="graph" transform="scale(1 1) rotate(0) translate(4 78)">
<title>asm330lhhx_mag_offset_get</title>
<!-- Node1 -->
<g id="Node000001" class="node">
<title>Node1</title>
<g id="a_Node000001"><a xlink:title="Offset for hard&#45;iron compensation register (r/w).">
<polygon fill="#999999" stroke="#666666" points="154,-44 0,-44 0,-21 154,-21 154,-44"/>
<text xml:space="preserve" text-anchor="middle" x="77" y="-29.55" font-family="Segoe UI" font-size="11.00">asm330lhhx_mag_offset_get</text>
</a>
</g>
</g>
<!-- Node2 -->
<g id="Node000002" class="node">
<title>Node2</title>
<g id="a_Node000002"><a xlink:href="../../d7/d06/group___a_s_m330_l_h_h_x__common.html#ga784fea01badb60083a74c7eae6c939d9" target="_top" xlink:title="Read a line(byte) in a page.">
<polygon fill="white" stroke="#666666" points="347.75,-44 190,-44 190,-21 347.75,-21 347.75,-44"/>
<text xml:space="preserve" text-anchor="middle" x="268.88" y="-29.55" font-family="Segoe UI" font-size="11.00">asm330lhhx_ln_pg_read_byte</text>
</a>
</g>
</g>
<!-- Node1&#45;&gt;Node2 -->
<g id="edge1_Node000001_Node000002" class="edge">
<title>Node1&#45;&gt;Node2</title>
<g id="a_edge1_Node000001_Node000002"><a xlink:title=" ">
<path fill="none" stroke="#63b8ff" d="M154.41,-32.5C162.32,-32.5 170.42,-32.5 178.46,-32.5"/>
<polygon fill="#63b8ff" stroke="#63b8ff" points="178.25,-36 188.25,-32.5 178.25,-29 178.25,-36"/>
</a>
</g>
</g>
<!-- Node3 -->
<g id="Node000003" class="node">
<title>Node3</title>
<g id="a_Node000003"><a xlink:href="../../d7/d06/group___a_s_m330_l_h_h_x__common.html#ga3eec00135322e4acf21c4cc9d91cea37" target="_top" xlink:title="Enable access to the embedded functions/sensor hub configuration registers.">
<polygon fill="white" stroke="#666666" points="534,-44 383.75,-44 383.75,-21 534,-21 534,-44"/>
<text xml:space="preserve" text-anchor="middle" x="458.88" y="-29.55" font-family="Segoe UI" font-size="11.00">asm330lhhx_mem_bank_set</text>
</a>
</g>
</g>
<!-- Node2&#45;&gt;Node3 -->
<g id="edge2_Node000002_Node000003" class="edge">
<title>Node2&#45;&gt;Node3</title>
<g id="a_edge2_Node000002_Node000003"><a xlink:title=" ">
<path fill="none" stroke="#63b8ff" d="M348.24,-32.5C356.19,-32.5 364.28,-32.5 372.3,-32.5"/>
<polygon fill="#63b8ff" stroke="#63b8ff" points="372.04,-36 382.04,-32.5 372.04,-29 372.04,-36"/>
</a>
</g>
</g>
<!-- Node4 -->
<g id="Node000004" class="node">
<title>Node4</title>
<g id="a_Node000004"><a xlink:href="../../d4/d0a/group___a_s_m330_l_h_h_x___interfaces___functions.html#ga055789ec99877625ada1f32c5d0c0663" target="_top" xlink:title="Read generic device register.">
<polygon fill="white" stroke="#666666" points="692.5,-74 571.5,-74 571.5,-51 692.5,-51 692.5,-74"/>
<text xml:space="preserve" text-anchor="middle" x="632" y="-59.55" font-family="Segoe UI" font-size="11.00">asm330lhhx_read_reg</text>
</a>
</g>
</g>
<!-- Node2&#45;&gt;Node4 -->
<g id="edge5_Node000002_Node000004" class="edge">
<title>Node2&#45;&gt;Node4</title>
<g id="a_edge5_Node000002_Node000004"><a xlink:title=" ">
<path fill="none" stroke="#63b8ff" d="M325.82,-44.5C344.19,-47.99 364.77,-51.42 383.75,-53.5 442.87,-59.99 510.37,-62.09 559.89,-62.66"/>
<polygon fill="#63b8ff" stroke="#63b8ff" points="559.57,-66.15 569.61,-62.75 559.64,-59.15 559.57,-66.15"/>
</a>
</g>
</g>
<!-- Node5 -->
<g id="Node000005" class="node">
<title>Node5</title>
<g id="a_Node000005"><a xlink:href="../../d4/d0a/group___a_s_m330_l_h_h_x___interfaces___functions.html#ga74aa8c38553438993852e15e2ff1c975" target="_top" xlink:title="Write generic device register.">
<polygon fill="white" stroke="#666666" points="694,-23 570,-23 570,0 694,0 694,-23"/>
<text xml:space="preserve" text-anchor="middle" x="632" y="-8.55" font-family="Segoe UI" font-size="11.00">asm330lhhx_write_reg</text>
</a>
</g>
</g>
<!-- Node2&#45;&gt;Node5 -->
<g id="edge6_Node000002_Node000005" class="edge">
<title>Node2&#45;&gt;Node5</title>
<g id="a_edge6_Node000002_Node000005"><a xlink:title=" ">
<path fill="none" stroke="#63b8ff" d="M326.97,-20.52C345.04,-17.25 365.16,-14.16 383.75,-12.5 442.36,-7.27 509.09,-7.36 558.44,-8.56"/>
<polygon fill="#63b8ff" stroke="#63b8ff" points="558.04,-12.05 568.13,-8.82 558.23,-5.06 558.04,-12.05"/>
</a>
</g>
</g>
<!-- Node3&#45;&gt;Node4 -->
<g id="edge3_Node000003_Node000004" class="edge">
<title>Node3&#45;&gt;Node4</title>
<g id="a_edge3_Node000003_Node000004"><a xlink:title=" ">
<path fill="none" stroke="#63b8ff" d="M528,-44.44C538.47,-46.28 549.31,-48.18 559.85,-50.03"/>
<polygon fill="#63b8ff" stroke="#63b8ff" points="559.18,-53.46 569.64,-51.74 560.39,-46.57 559.18,-53.46"/>
</a>
</g>
</g>
<!-- Node3&#45;&gt;Node5 -->
<g id="edge4_Node000003_Node000005" class="edge">
<title>Node3&#45;&gt;Node5</title>
<g id="a_edge4_Node000003_Node000005"><a xlink:title=" ">
<path fill="none" stroke="#63b8ff" d="M534.44,-23.35C542.3,-22.38 550.29,-21.4 558.14,-20.44"/>
<polygon fill="#63b8ff" stroke="#63b8ff" points="558.5,-23.92 568,-19.23 557.65,-16.98 558.5,-23.92"/>
</a>
</g>
</g>
</g>
</svg>
