<?xml version="1.0" encoding="UTF-8" standalone="no"?>
<!DOCTYPE svg PUBLIC "-//W3C//DTD SVG 1.1//EN"
 "http://www.w3.org/Graphics/SVG/1.1/DTD/svg11.dtd">
<!-- Generated by graphviz version 14.1.1 (20251213.1925)
 -->
<!-- Title: Codigo/Sensors/ASM330LHHX/asm330lhhx_reg.c Pages: 1 -->
<svg width="272pt" height="152pt"
 viewBox="0.00 0.00 272.00 152.00" xmlns="http://www.w3.org/2000/svg" xmlns:xlink="http://www.w3.org/1999/xlink">

<svg id="main" version="1.1" xmlns="http://www.w3.org/2000/svg" xmlns:xlink="http://www.w3.org/1999/xlink" xml:space="preserve">

<style type="text/css"><![CDATA[
.node, .edge {opacity: 0.7;}
.node.selected, .edge.selected {opacity: 1;}
.edge:hover path { stroke: red; }
.edge:hover polygon { stroke: red; fill: red; }
]]></style>
<script type="application/ecmascript" xlink:href="svg.min.js"/>
<svg id="graph" class="graph">
<g id="graph0" class="graph" transform="scale(1 1) rotate(0) translate(4 148)">
<title>Codigo/Sensors/ASM330LHHX/asm330lhhx_reg.c</title>
<!-- Node1 -->
<g id="Node000001" class="node">
<title>Node1</title>
<g id="a_Node000001"><a xlink:title=" ">
<polygon fill="#999999" stroke="#666666" points="255.75,-144 102.5,-144 102.5,-112 255.75,-112 255.75,-144"/>
<text xml:space="preserve" text-anchor="start" x="110.5" y="-130.5" font-family="Helvetica,sans-Serif" font-size="10.00">Codigo/Sensors/ASM330LHHX</text>
<text xml:space="preserve" text-anchor="middle" x="179.12" y="-118.5" font-family="Helvetica,sans-Serif" font-size="10.00">/asm330lhhx_reg.c</text>
</a>
</g>
</g>
<!-- Node2 -->
<g id="Node000002" class="node">
<title>Node2</title>
<g id="a_Node000002"><a xlink:href="asm330lhhx__reg_8h.html" target="_top" xlink:title=" ">
<polygon fill="white" stroke="#666666" points="139.88,-76 44.38,-76 44.38,-56 139.88,-56 139.88,-76"/>
<text xml:space="preserve" text-anchor="middle" x="92.12" y="-62.5" font-family="Helvetica,sans-Serif" font-size="10.00">asm330lhhx_reg.h</text>
</a>
</g>
</g>
<!-- Node1&#45;&gt;Node2 -->
<g id="edge1_Node000001_Node000002" class="edge">
<title>Node1&#45;&gt;Node2</title>
<g id="a_edge1_Node000001_Node000002"><a xlink:title=" ">
<path fill="none" stroke="#63b8ff" d="M156.72,-111.55C143.88,-102.69 127.81,-91.61 114.91,-82.71"/>
<polygon fill="#63b8ff" stroke="#63b8ff" points="117.23,-80.06 107.01,-77.27 113.26,-85.83 117.23,-80.06"/>
</a>
</g>
</g>
<!-- Node6 -->
<g id="Node000006" class="node">
<title>Node6</title>
<g id="a_Node000006"><a xlink:title=" ">
<polygon fill="#e0e0e0" stroke="#999999" points="200.62,-76 157.62,-76 157.62,-56 200.62,-56 200.62,-76"/>
<text xml:space="preserve" text-anchor="middle" x="179.12" y="-62.5" font-family="Helvetica,sans-Serif" font-size="10.00">print.h</text>
</a>
</g>
</g>
<!-- Node1&#45;&gt;Node6 -->
<g id="edge5_Node000001_Node000006" class="edge">
<title>Node1&#45;&gt;Node6</title>
<g id="a_edge5_Node000001_Node000006"><a xlink:title=" ">
<path fill="none" stroke="#63b8ff" d="M179.12,-111.55C179.12,-104.34 179.12,-95.66 179.12,-87.88"/>
<polygon fill="#63b8ff" stroke="#63b8ff" points="182.63,-87.92 179.13,-77.92 175.63,-87.92 182.63,-87.92"/>
</a>
</g>
</g>
<!-- Node7 -->
<g id="Node000007" class="node">
<title>Node7</title>
<g id="a_Node000007"><a xlink:title=" ">
<polygon fill="#e0e0e0" stroke="#999999" points="263.75,-76 218.5,-76 218.5,-56 263.75,-56 263.75,-76"/>
<text xml:space="preserve" text-anchor="middle" x="241.12" y="-62.5" font-family="Helvetica,sans-Serif" font-size="10.00">stdio.h</text>
</a>
</g>
</g>
<!-- Node1&#45;&gt;Node7 -->
<g id="edge6_Node000001_Node000007" class="edge">
<title>Node1&#45;&gt;Node7</title>
<g id="a_edge6_Node000001_Node000007"><a xlink:title=" ">
<path fill="none" stroke="#63b8ff" d="M195.09,-111.55C203.7,-103.22 214.36,-92.91 223.24,-84.3"/>
<polygon fill="#63b8ff" stroke="#63b8ff" points="225.56,-86.93 230.32,-77.46 220.7,-81.9 225.56,-86.93"/>
</a>
</g>
</g>
<!-- Node3 -->
<g id="Node000003" class="node">
<title>Node3</title>
<g id="a_Node000003"><a xlink:title=" ">
<polygon fill="#e0e0e0" stroke="#999999" points="48.25,-20 0,-20 0,0 48.25,0 48.25,-20"/>
<text xml:space="preserve" text-anchor="middle" x="24.12" y="-6.5" font-family="Helvetica,sans-Serif" font-size="10.00">stdint.h</text>
</a>
</g>
</g>
<!-- Node2&#45;&gt;Node3 -->
<g id="edge2_Node000002_Node000003" class="edge">
<title>Node2&#45;&gt;Node3</title>
<g id="a_edge2_Node000002_Node000003"><a xlink:title=" ">
<path fill="none" stroke="#63b8ff" d="M80.28,-55.59C70.43,-47.77 56.19,-36.46 44.52,-27.19"/>
<polygon fill="#63b8ff" stroke="#63b8ff" points="47.03,-24.72 37.02,-21.24 42.67,-30.2 47.03,-24.72"/>
</a>
</g>
</g>
<!-- Node4 -->
<g id="Node000004" class="node">
<title>Node4</title>
<g id="a_Node000004"><a xlink:title=" ">
<polygon fill="#e0e0e0" stroke="#999999" points="117.75,-20 66.5,-20 66.5,0 117.75,0 117.75,-20"/>
<text xml:space="preserve" text-anchor="middle" x="92.12" y="-6.5" font-family="Helvetica,sans-Serif" font-size="10.00">stddef.h</text>
</a>
</g>
</g>
<!-- Node2&#45;&gt;Node4 -->
<g id="edge3_Node000002_Node000004" class="edge">
<title>Node2&#45;&gt;Node4</title>
<g id="a_edge3_Node000002_Node000004"><a xlink:title=" ">
<path fill="none" stroke="#63b8ff" d="M92.12,-55.59C92.12,-49.01 92.12,-39.96 92.12,-31.73"/>
<polygon fill="#63b8ff" stroke="#63b8ff" points="95.63,-31.81 92.13,-21.81 88.63,-31.81 95.63,-31.81"/>
</a>
</g>
</g>
<!-- Node5 -->
<g id="Node000005" class="node">
<title>Node5</title>
<g id="a_Node000005"><a xlink:title=" ">
<polygon fill="#e0e0e0" stroke="#999999" points="182.12,-20 136.12,-20 136.12,0 182.12,0 182.12,-20"/>
<text xml:space="preserve" text-anchor="middle" x="159.12" y="-6.5" font-family="Helvetica,sans-Serif" font-size="10.00">math.h</text>
</a>
</g>
</g>
<!-- Node2&#45;&gt;Node5 -->
<g id="edge4_Node000002_Node000005" class="edge">
<title>Node2&#45;&gt;Node5</title>
<g id="a_edge4_Node000002_Node000005"><a xlink:title=" ">
<path fill="none" stroke="#63b8ff" d="M103.8,-55.59C113.4,-47.85 127.25,-36.69 138.69,-27.47"/>
<polygon fill="#63b8ff" stroke="#63b8ff" points="140.82,-30.25 146.41,-21.25 136.43,-24.8 140.82,-30.25"/>
</a>
</g>
</g>
</g>
</svg>
</svg>

<style type='text/css'>
<![CDATA[
[data-mouse-over-selected='false'] { opacity: 0.7; }
[data-mouse-over-selected='true']  { opacity: 1.0; }
]]>
</style>
<script type="application/ecmascript"><![CDATA[
document.addEventListener('DOMContentLoaded', (event) => {
  highlightEdges();
  highlightAdjacentNodes();
});
]]></script>
</svg>
