<?xml version="1.0" encoding="UTF-8" standalone="no"?>
<!DOCTYPE svg PUBLIC "-//W3C//DTD SVG 1.1//EN"
 "http://www.w3.org/Graphics/SVG/1.1/DTD/svg11.dtd">
<!-- Generated by graphviz version 14.1.1 (20251213.1925)
 -->
<!-- Title: Codigo/Storage/fatfs_sd.h Pages: 1 -->
<svg width="529pt" height="164pt"
 viewBox="0.00 0.00 529.00 164.00" xmlns="http://www.w3.org/2000/svg" xmlns:xlink="http://www.w3.org/1999/xlink">
<g id="graph0" class="graph" transform="scale(1 1) rotate(0) translate(4 160)">
<title>Codigo/Storage/fatfs_sd.h</title>
<!-- Node1 -->
<g id="Node000001" class="node">
<title>Node1</title>
<g id="a_Node000001"><a xlink:title=" ">
<polygon fill="#999999" stroke="#666666" points="330.25,-156 200.25,-156 200.25,-136 330.25,-136 330.25,-156"/>
<text xml:space="preserve" text-anchor="middle" x="265.25" y="-142.5" font-family="Helvetica,sans-Serif" font-size="10.00">Codigo/Storage/fatfs_sd.h</text>
</a>
</g>
</g>
<!-- Node2 -->
<g id="Node000002" class="node">
<title>Node2</title>
<g id="a_Node000002"><a xlink:href="fatfs__funcoes__auxiliares_8h.html" target="_top" xlink:title=" ">
<polygon fill="white" stroke="#666666" points="110.5,-100 0,-100 0,-68 110.5,-68 110.5,-100"/>
<text xml:space="preserve" text-anchor="start" x="8" y="-86.5" font-family="Helvetica,sans-Serif" font-size="10.00">Codigo/Storage/fatfs</text>
<text xml:space="preserve" text-anchor="middle" x="55.25" y="-74.5" font-family="Helvetica,sans-Serif" font-size="10.00">_funcoes_auxiliares.h</text>
</a>
</g>
</g>
<!-- Node1&#45;&gt;Node2 -->
<g id="edge1_Node000001_Node000002" class="edge">
<title>Node1&#45;&gt;Node2</title>
<g id="a_edge1_Node000001_Node000002"><a xlink:title=" ">
<path fill="none" stroke="#63b8ff" d="M221.46,-132.49C188.9,-123.19 144.28,-110.44 109.47,-100.49"/>
<polygon fill="#63b8ff" stroke="#63b8ff" points="220.41,-135.83 230.98,-135.21 222.33,-129.1 220.41,-135.83"/>
</a>
</g>
</g>
<!-- Node4 -->
<g id="Node000004" class="node">
<title>Node4</title>
<g id="a_Node000004"><a xlink:href="fatfs__sd_8c.html" target="_top" xlink:title=" ">
<polygon fill="white" stroke="#666666" points="258.25,-94 128.25,-94 128.25,-74 258.25,-74 258.25,-94"/>
<text xml:space="preserve" text-anchor="middle" x="193.25" y="-80.5" font-family="Helvetica,sans-Serif" font-size="10.00">Codigo/Storage/fatfs_sd.c</text>
</a>
</g>
</g>
<!-- Node1&#45;&gt;Node4 -->
<g id="edge3_Node000001_Node000004" class="edge">
<title>Node1&#45;&gt;Node4</title>
<g id="a_edge3_Node000001_Node000004"><a xlink:title=" ">
<path fill="none" stroke="#63b8ff" d="M245.5,-128.55C232.19,-117.45 215.12,-103.23 204.19,-94.11"/>
<polygon fill="#63b8ff" stroke="#63b8ff" points="242.91,-130.94 252.84,-134.66 247.4,-125.57 242.91,-130.94"/>
</a>
</g>
</g>
<!-- Node5 -->
<g id="Node000005" class="node">
<title>Node5</title>
<g id="a_Node000005"><a xlink:href="sd__card__thread_8c.html" target="_top" xlink:title=" ">
<polygon fill="white" stroke="#666666" points="397.75,-100 276.75,-100 276.75,-68 397.75,-68 397.75,-100"/>
<text xml:space="preserve" text-anchor="start" x="284.75" y="-86.5" font-family="Helvetica,sans-Serif" font-size="10.00">Codigo/Storage/sd_card</text>
<text xml:space="preserve" text-anchor="middle" x="337.25" y="-74.5" font-family="Helvetica,sans-Serif" font-size="10.00">_thread.c</text>
</a>
</g>
</g>
<!-- Node1&#45;&gt;Node5 -->
<g id="edge4_Node000001_Node000005" class="edge">
<title>Node1&#45;&gt;Node5</title>
<g id="a_edge4_Node000001_Node000005"><a xlink:title=" ">
<path fill="none" stroke="#63b8ff" d="M285.04,-128.51C295.58,-119.72 308.47,-108.98 318.8,-100.37"/>
<polygon fill="#63b8ff" stroke="#63b8ff" points="283.1,-125.57 277.66,-134.66 287.59,-130.94 283.1,-125.57"/>
</a>
</g>
</g>
<!-- Node6 -->
<g id="Node000006" class="node">
<title>Node6</title>
<g id="a_Node000006"><a xlink:href="user__diskio_8c.html" target="_top" xlink:title="FatFS disk interface &#45; delegates to proven SD driver.">
<polygon fill="white" stroke="#666666" points="520.88,-100 415.62,-100 415.62,-68 520.88,-68 520.88,-100"/>
<text xml:space="preserve" text-anchor="start" x="423.62" y="-86.5" font-family="Helvetica,sans-Serif" font-size="10.00">Codigo/Storage/user</text>
<text xml:space="preserve" text-anchor="middle" x="468.25" y="-74.5" font-family="Helvetica,sans-Serif" font-size="10.00">_diskio.c</text>
</a>
</g>
</g>
<!-- Node1&#45;&gt;Node6 -->
<g id="edge5_Node000001_Node000006" class="edge">
<title>Node1&#45;&gt;Node6</title>
<g id="a_edge5_Node000001_Node000006"><a xlink:title=" ">
<path fill="none" stroke="#63b8ff" d="M307.99,-132.37C339.43,-123.08 382.34,-110.39 415.84,-100.49"/>
<polygon fill="#63b8ff" stroke="#63b8ff" points="307.02,-129.01 298.42,-135.2 309,-135.72 307.02,-129.01"/>
</a>
</g>
</g>
<!-- Node3 -->
<g id="Node000003" class="node">
<title>Node3</title>
<g id="a_Node000003"><a xlink:href="fatfs__funcoes__auxiliares_8c.html" target="_top" xlink:title=" ">
<polygon fill="white" stroke="#666666" points="110.5,-32 0,-32 0,0 110.5,0 110.5,-32"/>
<text xml:space="preserve" text-anchor="start" x="8" y="-18.5" font-family="Helvetica,sans-Serif" font-size="10.00">Codigo/Storage/fatfs</text>
<text xml:space="preserve" text-anchor="middle" x="55.25" y="-6.5" font-family="Helvetica,sans-Serif" font-size="10.00">_funcoes_auxiliares.c</text>
</a>
</g>
</g>
<!-- Node2&#45;&gt;Node3 -->
<g id="edge2_Node000002_Node000003" class="edge">
<title>Node2&#45;&gt;Node3</title>
<g id="a_edge2_Node000002_Node000003"><a xlink:title=" ">
<path fill="none" stroke="#63b8ff" d="M55.25,-56.31C55.25,-48.12 55.25,-39.38 55.25,-32.22"/>
<polygon fill="#63b8ff" stroke="#63b8ff" points="51.75,-56.18 55.25,-66.18 58.75,-56.18 51.75,-56.18"/>
</a>
</g>
</g>
</g>
</svg>
