<?xml version="1.0" encoding="UTF-8" standalone="no"?>
<!DOCTYPE svg PUBLIC "-//W3C//DTD SVG 1.1//EN"
 "http://www.w3.org/Graphics/SVG/1.1/DTD/svg11.dtd">
<!-- Generated by graphviz version 14.1.1 (20251213.1925)
 -->
<!-- Title: MS5607_AddCalibrationSample Pages: 1 -->
<svg width="555pt" height="28pt"
 viewBox="0.00 0.00 555.00 28.00" xmlns="http://www.w3.org/2000/svg" xmlns:xlink="http://www.w3.org/1999/xlink">
<g id="graph0" class="graph" transform="scale(1 1) rotate(0) translate(4 24)">
<title>MS5607_AddCalibrationSample</title>
<!-- Node1 -->
<g id="Node000001" class="node">
<title>Node1</title>
<g id="a_Node000001"><a xlink:title="Add a calibration sample.">
<polygon fill="#999999" stroke="#666666" points="547,-20 393,-20 393,0 547,0 547,-20"/>
<text xml:space="preserve" text-anchor="middle" x="470" y="-6.5" font-family="Helvetica,sans-Serif" font-size="10.00">MS5607_AddCalibrationSample</text>
</a>
</g>
</g>
<!-- Node2 -->
<g id="Node000002" class="node">
<title>Node2</title>
<g id="a_Node000002"><a xlink:href="flight__computer__thread_8c.html#a2fba635977f4085ac27b05d7ff0c73a2" target="_top" xlink:title=" ">
<polygon fill="white" stroke="#666666" points="357,-20 257,-20 257,0 357,0 357,-20"/>
<text xml:space="preserve" text-anchor="middle" x="307" y="-6.5" font-family="Helvetica,sans-Serif" font-size="10.00">process_calibration</text>
</a>
</g>
</g>
<!-- Node1&#45;&gt;Node2 -->
<g id="edge1_Node000001_Node000002" class="edge">
<title>Node1&#45;&gt;Node2</title>
<g id="a_edge1_Node000001_Node000002"><a xlink:title=" ">
<path fill="none" stroke="#63b8ff" d="M381.46,-10C373.21,-10 365.06,-10 357.35,-10"/>
<polygon fill="#63b8ff" stroke="#63b8ff" points="381.23,-13.5 391.23,-10 381.23,-6.5 381.23,-13.5"/>
</a>
</g>
</g>
<!-- Node3 -->
<g id="Node000003" class="node">
<title>Node3</title>
<g id="a_Node000003"><a xlink:href="flight__computer__thread_8c.html#aefe59d550e4a3434bc55f21e5bc50168" target="_top" xlink:title=" ">
<polygon fill="white" stroke="#666666" points="221,-20 116.5,-20 116.5,0 221,0 221,-20"/>
<text xml:space="preserve" text-anchor="middle" x="168.75" y="-6.5" font-family="Helvetica,sans-Serif" font-size="10.00">fsm_thread_function</text>
</a>
</g>
</g>
<!-- Node2&#45;&gt;Node3 -->
<g id="edge2_Node000002_Node000003" class="edge">
<title>Node2&#45;&gt;Node3</title>
<g id="a_edge2_Node000002_Node000003"><a xlink:title=" ">
<path fill="none" stroke="#63b8ff" d="M245.48,-10C237.37,-10 229.1,-10 221.16,-10"/>
<polygon fill="#63b8ff" stroke="#63b8ff" points="245.3,-13.5 255.3,-10 245.3,-6.5 245.3,-13.5"/>
</a>
</g>
</g>
<!-- Node4 -->
<g id="Node000004" class="node">
<title>Node4</title>
<g id="a_Node000004"><a xlink:href="create__threads_8c.html#a82cd7db2f99ddc67b2e07ebeb7701534" target="_top" xlink:title=" ">
<polygon fill="white" stroke="#666666" points="80.5,-20 0,-20 0,0 80.5,0 80.5,-20"/>
<text xml:space="preserve" text-anchor="middle" x="40.25" y="-6.5" font-family="Helvetica,sans-Serif" font-size="10.00">create_threads</text>
</a>
</g>
</g>
<!-- Node3&#45;&gt;Node4 -->
<g id="edge3_Node000003_Node000004" class="edge">
<title>Node3&#45;&gt;Node4</title>
<g id="a_edge3_Node000003_Node000004"><a xlink:title=" ">
<path fill="none" stroke="#63b8ff" d="M105.02,-10C96.71,-10 88.39,-10 80.63,-10"/>
<polygon fill="#63b8ff" stroke="#63b8ff" points="104.78,-13.5 114.78,-10 104.78,-6.5 104.78,-13.5"/>
</a>
</g>
</g>
</g>
</svg>
