<?xml version="1.0" encoding="UTF-8" standalone="no"?>
<!DOCTYPE svg PUBLIC "-//W3C//DTD SVG 1.1//EN"
 "http://www.w3.org/Graphics/SVG/1.1/DTD/svg11.dtd">
<!-- Generated by graphviz version 14.1.1 (20251213.1925)
 -->
<!-- Title: asm330lhhx_ln_pg_write_byte Pages: 1 -->
<svg width="481pt" height="75pt"
 viewBox="0.00 0.00 481.00 75.00" xmlns="http://www.w3.org/2000/svg" xmlns:xlink="http://www.w3.org/1999/xlink">
<g id="graph0" class="graph" transform="scale(1 1) rotate(0) translate(4 71)">
<title>asm330lhhx_ln_pg_write_byte</title>
<!-- Node1 -->
<g id="Node000001" class="node">
<title>Node1</title>
<g id="a_Node000001"><a xlink:title="Write a line(byte) in a page.">
<polygon fill="#999999" stroke="#666666" points="147.25,-48 0,-48 0,-28 147.25,-28 147.25,-48"/>
<text xml:space="preserve" text-anchor="middle" x="73.62" y="-34.5" font-family="Helvetica,sans-Serif" font-size="10.00">asm330lhhx_ln_pg_write_byte</text>
</a>
</g>
</g>
<!-- Node2 -->
<g id="Node000002" class="node">
<title>Node2</title>
<g id="a_Node000002"><a xlink:href="group___a_s_m330_l_h_h_x__common.html#ga3eec00135322e4acf21c4cc9d91cea37" target="_top" xlink:title="Enable access to the embedded functions/sensor hub configuration registers.">
<polygon fill="white" stroke="#666666" points="323.75,-48 183.25,-48 183.25,-28 323.75,-28 323.75,-48"/>
<text xml:space="preserve" text-anchor="middle" x="253.5" y="-34.5" font-family="Helvetica,sans-Serif" font-size="10.00">asm330lhhx_mem_bank_set</text>
</a>
</g>
</g>
<!-- Node1&#45;&gt;Node2 -->
<g id="edge1_Node000001_Node000002" class="edge">
<title>Node1&#45;&gt;Node2</title>
<g id="a_edge1_Node000001_Node000002"><a xlink:title=" ">
<path fill="none" stroke="#63b8ff" d="M147.74,-38C155.53,-38 163.49,-38 171.37,-38"/>
<polygon fill="#63b8ff" stroke="#63b8ff" points="171.3,-41.5 181.3,-38 171.3,-34.5 171.3,-41.5"/>
</a>
</g>
</g>
<!-- Node3 -->
<g id="Node000003" class="node">
<title>Node3</title>
<g id="a_Node000003"><a xlink:href="group___a_s_m330_l_h_h_x___interfaces___functions.html#ga055789ec99877625ada1f32c5d0c0663" target="_top" xlink:title="Read generic device register.">
<polygon fill="white" stroke="#666666" points="472.12,-67 360.88,-67 360.88,-47 472.12,-47 472.12,-67"/>
<text xml:space="preserve" text-anchor="middle" x="416.5" y="-53.5" font-family="Helvetica,sans-Serif" font-size="10.00">asm330lhhx_read_reg</text>
</a>
</g>
</g>
<!-- Node1&#45;&gt;Node3 -->
<g id="edge4_Node000001_Node000003" class="edge">
<title>Node1&#45;&gt;Node3</title>
<g id="a_edge4_Node000001_Node000003"><a xlink:title=" ">
<path fill="none" stroke="#63b8ff" d="M123.87,-48.47C142.39,-51.92 163.7,-55.3 183.25,-57 238.98,-61.84 302.52,-61.43 349.04,-60.04"/>
<polygon fill="#63b8ff" stroke="#63b8ff" points="349.09,-63.55 358.97,-59.72 348.86,-56.55 349.09,-63.55"/>
</a>
</g>
</g>
<!-- Node4 -->
<g id="Node000004" class="node">
<title>Node4</title>
<g id="a_Node000004"><a xlink:href="group___a_s_m330_l_h_h_x___interfaces___functions.html#ga74aa8c38553438993852e15e2ff1c975" target="_top" xlink:title="Write generic device register.">
<polygon fill="white" stroke="#666666" points="473.25,-20 359.75,-20 359.75,0 473.25,0 473.25,-20"/>
<text xml:space="preserve" text-anchor="middle" x="416.5" y="-6.5" font-family="Helvetica,sans-Serif" font-size="10.00">asm330lhhx_write_reg</text>
</a>
</g>
</g>
<!-- Node1&#45;&gt;Node4 -->
<g id="edge5_Node000001_Node000004" class="edge">
<title>Node1&#45;&gt;Node4</title>
<g id="a_edge5_Node000001_Node000004"><a xlink:title=" ">
<path fill="none" stroke="#63b8ff" d="M126.09,-27.54C144.1,-24.27 164.5,-20.99 183.25,-19 238.55,-13.12 301.62,-10.96 348.07,-10.22"/>
<polygon fill="#63b8ff" stroke="#63b8ff" points="348.04,-13.72 357.99,-10.09 347.94,-6.72 348.04,-13.72"/>
</a>
</g>
</g>
<!-- Node2&#45;&gt;Node3 -->
<g id="edge2_Node000002_Node000003" class="edge">
<title>Node2&#45;&gt;Node3</title>
<g id="a_edge2_Node000002_Node000003"><a xlink:title=" ">
<path fill="none" stroke="#63b8ff" d="M324.18,-46.22C332.59,-47.22 341.17,-48.23 349.53,-49.21"/>
<polygon fill="#63b8ff" stroke="#63b8ff" points="348.91,-52.67 359.25,-50.36 349.73,-45.71 348.91,-52.67"/>
</a>
</g>
</g>
<!-- Node2&#45;&gt;Node4 -->
<g id="edge3_Node000002_Node000004" class="edge">
<title>Node2&#45;&gt;Node4</title>
<g id="a_edge3_Node000002_Node000004"><a xlink:title=" ">
<path fill="none" stroke="#63b8ff" d="M314.45,-27.57C325.51,-25.65 337.13,-23.63 348.39,-21.67"/>
<polygon fill="#63b8ff" stroke="#63b8ff" points="348.75,-25.16 358.01,-20 347.55,-18.26 348.75,-25.16"/>
</a>
</g>
</g>
</g>
</svg>
