<?xml version="1.0" encoding="UTF-8" standalone="no"?>
<!DOCTYPE svg PUBLIC "-//W3C//DTD SVG 1.1//EN"
 "http://www.w3.org/Graphics/SVG/1.1/DTD/svg11.dtd">
<!-- Generated by graphviz version 14.1.1 (20251213.1925)
 -->
<!-- Title: asm330lhhx_auto_increment_set Pages: 1 -->
<svg width="317pt" height="66pt"
 viewBox="0.00 0.00 317.00 66.00" xmlns="http://www.w3.org/2000/svg" xmlns:xlink="http://www.w3.org/1999/xlink">
<g id="graph0" class="graph" transform="scale(1 1) rotate(0) translate(4 62)">
<title>asm330lhhx_auto_increment_set</title>
<!-- Node1 -->
<g id="Node000001" class="node">
<title>Node1</title>
<g id="a_Node000001"><a xlink:title="Register address automatically incremented during a multiple byte access with a serial interface.">
<polygon fill="#999999" stroke="#666666" points="159.25,-39 0,-39 0,-19 159.25,-19 159.25,-39"/>
<text xml:space="preserve" text-anchor="middle" x="79.62" y="-25.5" font-family="Helvetica,sans-Serif" font-size="10.00">asm330lhhx_auto_increment_set</text>
</a>
</g>
</g>
<!-- Node2 -->
<g id="Node000002" class="node">
<title>Node2</title>
<g id="a_Node000002"><a xlink:href="group___a_s_m330_l_h_h_x___interfaces___functions.html#ga055789ec99877625ada1f32c5d0c0663" target="_top" xlink:title="Read generic device register.">
<polygon fill="white" stroke="#666666" points="307.62,-58 196.38,-58 196.38,-38 307.62,-38 307.62,-58"/>
<text xml:space="preserve" text-anchor="middle" x="252" y="-44.5" font-family="Helvetica,sans-Serif" font-size="10.00">asm330lhhx_read_reg</text>
</a>
</g>
</g>
<!-- Node1&#45;&gt;Node2 -->
<g id="edge1_Node000001_Node000002" class="edge">
<title>Node1&#45;&gt;Node2</title>
<g id="a_edge1_Node000001_Node000002"><a xlink:title=" ">
<path fill="none" stroke="#63b8ff" d="M159.33,-37.78C167.84,-38.73 176.44,-39.69 184.78,-40.62"/>
<polygon fill="#63b8ff" stroke="#63b8ff" points="184.14,-44.07 194.46,-41.7 184.91,-37.11 184.14,-44.07"/>
</a>
</g>
</g>
<!-- Node3 -->
<g id="Node000003" class="node">
<title>Node3</title>
<g id="a_Node000003"><a xlink:href="group___a_s_m330_l_h_h_x___interfaces___functions.html#ga74aa8c38553438993852e15e2ff1c975" target="_top" xlink:title="Write generic device register.">
<polygon fill="white" stroke="#666666" points="308.75,-20 195.25,-20 195.25,0 308.75,0 308.75,-20"/>
<text xml:space="preserve" text-anchor="middle" x="252" y="-6.5" font-family="Helvetica,sans-Serif" font-size="10.00">asm330lhhx_write_reg</text>
</a>
</g>
</g>
<!-- Node1&#45;&gt;Node3 -->
<g id="edge2_Node000001_Node000003" class="edge">
<title>Node1&#45;&gt;Node3</title>
<g id="a_edge2_Node000001_Node000003"><a xlink:title=" ">
<path fill="none" stroke="#63b8ff" d="M159.33,-20.22C167.51,-19.31 175.77,-18.39 183.8,-17.49"/>
<polygon fill="#63b8ff" stroke="#63b8ff" points="183.92,-21 193.47,-16.42 183.15,-14.05 183.92,-21"/>
</a>
</g>
</g>
</g>
</svg>
