<?xml version="1.0" encoding="UTF-8" standalone="no"?>
<!DOCTYPE svg PUBLIC "-//W3C//DTD SVG 1.1//EN"
 "http://www.w3.org/Graphics/SVG/1.1/DTD/svg11.dtd">
<!-- Generated by graphviz version 14.1.1 (20251213.1925)
 -->
<!-- Title: handle_state_armed Pages: 1 -->
<!--zoomable 113 -->

<svg id="main" version="1.1" xmlns="http://www.w3.org/2000/svg" xmlns:xlink="http://www.w3.org/1999/xlink" xml:space="preserve" onload="init(evt)">

<style type="text/css"><![CDATA[
.node, .edge {opacity: 0.7;}
.node.selected, .edge.selected {opacity: 1;}
.edge:hover path { stroke: red; }
.edge:hover polygon { stroke: red; fill: red; }
]]></style>

<defs>
  <circle id="rim" cx="0" cy="0" r="7"/>
  <circle id="rim2" cx="0" cy="0" r="3.5"/>
  <g id="zoomPlus">
    <use xlink:href="#rim" fill="#404040"><set attributeName="fill" to="#808080" begin="zoomplus.mouseover" end="zoomplus.mouseout"/></use>
    <path d="M-4,0h8M0,-4v8" fill="none" stroke="white" stroke-width="1.5" pointer-events="none"/>
  </g>
  <g id="zoomMin">
    <use xlink:href="#rim" fill="#404040"><set attributeName="fill" to="#808080" begin="zoomminus.mouseover" end="zoomminus.mouseout"/></use>
    <path d="M-4,0h8" fill="none" stroke="white" stroke-width="1.5" pointer-events="none"/>
  </g>
  <g id="arrowUp" transform="translate(30 24)">
    <use xlink:href="#rim"/>
    <path pointer-events="none" fill="none" stroke="white" stroke-width="1.5" d="M0,-3.0v7 M-2.5,-0.5L0,-3.0L2.5,-0.5"/>
  </g>
  <g id="arrowRight" transform="rotate(90) translate(36 -43)">
    <use xlink:href="#rim"/>
    <path pointer-events="none" fill="none" stroke="white" stroke-width="1.5" d="M0,-3.0v7 M-2.5,-0.5L0,-3.0L2.5,-0.5"/>
  </g>
  <g id="arrowDown" transform="rotate(180) translate(-30 -48)">
    <use xlink:href="#rim"/>
    <path pointer-events="none" fill="none" stroke="white" stroke-width="1.5" d="M0,-3.0v7 M-2.5,-0.5L0,-3.0L2.5,-0.5"/>
  </g>
  <g id="arrowLeft" transform="rotate(270) translate(-36 17)">
    <use xlink:href="#rim"/>
    <path pointer-events="none" fill="none" stroke="white" stroke-width="1.5" d="M0,-3.0v7 M-2.5,-0.5L0,-3.0L2.5,-0.5"/>
  </g>
  <g id="resetDef">
    <use xlink:href="#rim2" fill="#404040"><set attributeName="fill" to="#808080" begin="reset.mouseover" end="reset.mouseout"/></use>
  </g>
</defs>
<script type="application/ecmascript">
var viewWidth = 657;
var viewHeight = 113;
var sectionId = 'dynsection-31';
</script>
<script type="application/ecmascript" xlink:href="../../svg.min.js"/>
<svg id="graph" class="graph">
<g id="viewport">
<title>handle_state_armed</title>
<!-- Node1 -->
<g id="Node000001" class="node">
<title>Node1</title>
<g id="a_Node000001"><a xlink:title=" ">
<polygon fill="#999999" stroke="#666666" points="112.75,-43 0,-43 0,-20 112.75,-20 112.75,-43"/>
<text xml:space="preserve" text-anchor="middle" x="56.38" y="-28.55" font-family="Segoe UI" font-size="11.00">handle_state_armed</text>
</a>
</g>
</g>
<!-- Node2 -->
<g id="Node000002" class="node">
<title>Node2</title>
<g id="a_Node000002"><a xlink:href="../../d0/d05/group___ctrl_motor_a_p_i.html#ga047f7d60f9b9bb9f15c771ba0b5de997" target="_top" xlink:title="Initialize motor subsystem.">
<polygon fill="white" stroke="#666666" points="268.25,-64 148.75,-64 148.75,-41 268.25,-41 268.25,-64"/>
<text xml:space="preserve" text-anchor="middle" x="208.5" y="-49.55" font-family="Segoe UI" font-size="11.00">controller_init_motor</text>
</a>
</g>
</g>
<!-- Node1&#45;&gt;Node2 -->
<g id="edge1_Node000001_Node000002" class="edge">
<title>Node1&#45;&gt;Node2</title>
<g id="a_edge1_Node000001_Node000002"><a xlink:title=" ">
<path fill="none" stroke="#63b8ff" d="M112.85,-39.26C120.83,-40.38 129.13,-41.54 137.35,-42.69"/>
<polygon fill="#63b8ff" stroke="#63b8ff" points="136.59,-46.11 146.98,-44.03 137.56,-39.18 136.59,-46.11"/>
</a>
</g>
</g>
<!-- Node7 -->
<g id="Node000007" class="node">
<title>Node7</title>
<g id="a_Node000007"><a xlink:href="../../de/d09/flight__computer__thread_8c.html#a2ecf3e0d09165155b1a42537d0b4d3ac" target="_top" xlink:title=" ">
<polygon fill="white" stroke="#666666" points="260.38,-23 156.62,-23 156.62,0 260.38,0 260.38,-23"/>
<text xml:space="preserve" text-anchor="middle" x="208.5" y="-8.55" font-family="Segoe UI" font-size="11.00">send_telem_event</text>
</a>
</g>
</g>
<!-- Node1&#45;&gt;Node7 -->
<g id="edge7_Node000001_Node000007" class="edge">
<title>Node1&#45;&gt;Node7</title>
<g id="a_edge7_Node000001_Node000007"><a xlink:title=" ">
<path fill="none" stroke="#63b8ff" d="M112.85,-24.11C123.28,-22.72 134.25,-21.26 144.87,-19.84"/>
<polygon fill="#63b8ff" stroke="#63b8ff" points="145.28,-23.32 154.73,-18.53 144.36,-16.38 145.28,-23.32"/>
</a>
</g>
</g>
<!-- Node3 -->
<g id="Node000003" class="node">
<title>Node3</title>
<g id="a_Node000003"><a xlink:href="../../d0/d0a/group___p_w_m_arm.html#gabb2e2dbd66c3fa015fe8698cf46e4f45" target="_top" xlink:title="Send ESC arm signal.">
<polygon fill="white" stroke="#666666" points="391.5,-105 306.5,-105 306.5,-82 391.5,-82 391.5,-105"/>
<text xml:space="preserve" text-anchor="middle" x="349" y="-90.55" font-family="Segoe UI" font-size="11.00">PWM_ArmESC</text>
</a>
</g>
</g>
<!-- Node2&#45;&gt;Node3 -->
<g id="edge2_Node000002_Node000003" class="edge">
<title>Node2&#45;&gt;Node3</title>
<g id="a_edge2_Node000002_Node000003"><a xlink:title=" ">
<path fill="none" stroke="#63b8ff" d="M249.93,-64.47C264.58,-68.81 281.32,-73.76 296.78,-78.34"/>
<polygon fill="#63b8ff" stroke="#63b8ff" points="295.72,-81.67 306.31,-81.16 297.71,-74.96 295.72,-81.67"/>
</a>
</g>
</g>
<!-- Node6 -->
<g id="Node000006" class="node">
<title>Node6</title>
<g id="a_Node000006"><a xlink:href="../../da/d05/group___p_w_m_core.html#ga2c0e86960979f0c8d21b864925b06e71" target="_top" xlink:title="Initialize PWM for ESC control.">
<polygon fill="white" stroke="#666666" points="380.25,-64 317.75,-64 317.75,-41 380.25,-41 380.25,-64"/>
<text xml:space="preserve" text-anchor="middle" x="349" y="-49.55" font-family="Segoe UI" font-size="11.00">PWM_Init</text>
</a>
</g>
</g>
<!-- Node2&#45;&gt;Node6 -->
<g id="edge5_Node000002_Node000006" class="edge">
<title>Node2&#45;&gt;Node6</title>
<g id="a_edge5_Node000002_Node000006"><a xlink:title=" ">
<path fill="none" stroke="#63b8ff" d="M268.64,-52.5C281.21,-52.5 294.24,-52.5 306.01,-52.5"/>
<polygon fill="#63b8ff" stroke="#63b8ff" points="305.79,-56 315.79,-52.5 305.79,-49 305.79,-56"/>
</a>
</g>
</g>
<!-- Node4 -->
<g id="Node000004" class="node">
<title>Node4</title>
<g id="a_Node000004"><a xlink:href="../../da/d05/group___p_w_m_core.html#ga7660f8e8d2a39643bdb847561886785e" target="_top" xlink:title="Set throttle directly.">
<polygon fill="white" stroke="#666666" points="531.25,-84 429.75,-84 429.75,-61 531.25,-61 531.25,-84"/>
<text xml:space="preserve" text-anchor="middle" x="480.5" y="-69.55" font-family="Segoe UI" font-size="11.00">PWM_SetThrottle</text>
</a>
</g>
</g>
<!-- Node3&#45;&gt;Node4 -->
<g id="edge3_Node000003_Node000004" class="edge">
<title>Node3&#45;&gt;Node4</title>
<g id="a_edge3_Node000003_Node000004"><a xlink:title=" ">
<path fill="none" stroke="#63b8ff" d="M391.69,-86.74C400.11,-85.37 409.13,-83.91 418.07,-82.46"/>
<polygon fill="#63b8ff" stroke="#63b8ff" points="418.49,-85.94 427.8,-80.88 417.36,-79.03 418.49,-85.94"/>
</a>
</g>
</g>
<!-- Node5 -->
<g id="Node000005" class="node">
<title>Node5</title>
<g id="a_Node000005"><a xlink:href="../../da/d05/group___p_w_m_core.html#ga1bdac1566a405cda6498a4735171ce00" target="_top" xlink:title="Convert throttle percentage to PWM duty cycle.">
<polygon fill="white" stroke="#666666" points="649.25,-84 567.25,-84 567.25,-61 649.25,-61 649.25,-84"/>
<text xml:space="preserve" text-anchor="middle" x="608.25" y="-69.55" font-family="Segoe UI" font-size="11.00">DC_to_Period</text>
</a>
</g>
</g>
<!-- Node4&#45;&gt;Node5 -->
<g id="edge4_Node000004_Node000005" class="edge">
<title>Node4&#45;&gt;Node5</title>
<g id="a_edge4_Node000004_Node000005"><a xlink:title=" ">
<path fill="none" stroke="#63b8ff" d="M531.56,-72.5C539.48,-72.5 547.67,-72.5 555.62,-72.5"/>
<polygon fill="#63b8ff" stroke="#63b8ff" points="555.52,-76 565.52,-72.5 555.52,-69 555.52,-76"/>
</a>
</g>
</g>
<!-- Node6&#45;&gt;Node4 -->
<g id="edge6_Node000006_Node000004" class="edge">
<title>Node6&#45;&gt;Node4</title>
<g id="a_edge6_Node000006_Node000004"><a xlink:title=" ">
<path fill="none" stroke="#63b8ff" d="M380.69,-57.24C391.91,-58.97 405.04,-61 418,-63"/>
<polygon fill="#63b8ff" stroke="#63b8ff" points="417.38,-66.45 427.79,-64.51 418.45,-59.53 417.38,-66.45"/>
</a>
</g>
</g>
<!-- Node8 -->
<g id="Node000008" class="node">
<title>Node8</title>
<g id="a_Node000008"><a xlink:href="../../d4/d0f/crc16_8c.html#a34ed94a1c09f01b0a3a7d35cb6fd4b0c" target="_top" xlink:title=" ">
<polygon fill="white" stroke="#666666" points="393.75,-23 304.25,-23 304.25,0 393.75,0 393.75,-23"/>
<text xml:space="preserve" text-anchor="middle" x="349" y="-8.55" font-family="Segoe UI" font-size="11.00">crc16_calculate</text>
</a>
</g>
</g>
<!-- Node7&#45;&gt;Node8 -->
<g id="edge8_Node000007_Node000008" class="edge">
<title>Node7&#45;&gt;Node8</title>
<g id="a_edge8_Node000007_Node000008"><a xlink:title=" ">
<path fill="none" stroke="#63b8ff" d="M260.68,-11.5C271.09,-11.5 282.09,-11.5 292.64,-11.5"/>
<polygon fill="#63b8ff" stroke="#63b8ff" points="292.35,-15 302.35,-11.5 292.35,-8 292.35,-15"/>
</a>
</g>
</g>
</g>
</svg>

<g id="navigator" transform="translate(0 0)" fill="#404254">
  <rect fill="#f2f5e9" fill-opacity="0.5" stroke="#606060" stroke-width=".5" x="0" y="0" width="60" height="60"/>
  <use id="zoomplus" xlink:href="#zoomPlus" x="17" y="9" onmousedown="handleZoom(evt,'in')"/>
  <use id="zoomminus" xlink:href="#zoomMin" x="42" y="9" onmousedown="handleZoom(evt,'out')"/>
  <use id="reset" xlink:href="#resetDef" x="30" y="36" onmousedown="handleReset()"/>
   <use id="arrowup" xlink:href="#arrowUp" x="0" y="0" onmousedown="handlePan(0,-1)"/>
  <use id="arrowright" xlink:href="#arrowRight" x="0" y="0" onmousedown="handlePan(1,0)"/>
  <use id="arrowdown" xlink:href="#arrowDown" x="0" y="0" onmousedown="handlePan(0,1)"/>
  <use id="arrowleft" xlink:href="#arrowLeft" x="0" y="0" onmousedown="handlePan(-1,0)"/>
</g>
<svg viewBox="0 0 15 15" width="100%" height="30px" preserveAspectRatio="xMaxYMin meet">
 <g id="arrow_out" transform="scale(0.3 0.3)">
  <a xlink:href="flight__computer__thread_8c_a7fc52c4743edce01f1dd2e6ba99cf12c_cgraph_org.svg" target="_base">
   <rect id="button" ry="5" rx="5" y="6" x="6" height="38" width="38"
        fill="#f2f5e9" fill-opacity="0.5" stroke="#606060" stroke-width="1.0"/>
   <path id="arrow"
     d="M 11.500037,31.436501 C 11.940474,20.09759 22.043105,11.32322 32.158766,21.979434 L 37.068811,17.246167 C 37.068811,17.246167 37.088388,32 37.088388,32 L 22.160133,31.978069 C 22.160133,31.978069 26.997745,27.140456 26.997745,27.140456 C 18.528582,18.264221 13.291696,25.230495 11.500037,31.436501 z"
     style="fill:#404040;"/>
  </a>
 </g>
</svg>

<style type='text/css'>
<![CDATA[
[data-mouse-over-selected='false'] { opacity: 0.7; }
[data-mouse-over-selected='true']  { opacity: 1.0; }
]]>
</style>
<script type="application/ecmascript"><![CDATA[
document.addEventListener('DOMContentLoaded', (event) => {
  highlightEdges();
  highlightAdjacentNodes();
});
]]></script>
</svg>
