<?xml version="1.0" encoding="UTF-8" standalone="no"?>
<!DOCTYPE svg PUBLIC "-//W3C//DTD SVG 1.1//EN"
 "http://www.w3.org/Graphics/SVG/1.1/DTD/svg11.dtd">
<!-- Generated by graphviz version 14.1.1 (20251213.1925)
 -->
<!-- Title: data_handler_store_baro Pages: 1 -->
<svg width="476pt" height="123pt"
 viewBox="0.00 0.00 476.00 123.00" xmlns="http://www.w3.org/2000/svg" xmlns:xlink="http://www.w3.org/1999/xlink">
<g id="graph0" class="graph" transform="scale(1 1) rotate(0) translate(4 119)">
<title>data_handler_store_baro</title>
<!-- Node1 -->
<g id="Node000001" class="node">
<title>Node1</title>
<g id="a_Node000001"><a xlink:title=" ">
<polygon fill="#999999" stroke="#666666" points="134.5,-54.5 0,-54.5 0,-31.5 134.5,-31.5 134.5,-54.5"/>
<text xml:space="preserve" text-anchor="middle" x="67.25" y="-40.05" font-family="Segoe UI" font-size="11.00">data_handler_store_baro</text>
</a>
</g>
</g>
<!-- Node2 -->
<g id="Node000002" class="node">
<title>Node2</title>
<g id="a_Node000002"><a xlink:href="../../de/d08/flash__data__handler_8c.html#a6ecff56fe8781b68b800af67baf57ee5" target="_top" xlink:title=" ">
<polygon fill="white" stroke="#666666" points="320.75,-79.5 170.5,-79.5 170.5,-56.5 320.75,-56.5 320.75,-79.5"/>
<text xml:space="preserve" text-anchor="middle" x="245.62" y="-65.05" font-family="Segoe UI" font-size="11.00">check_and_notify_threshold</text>
</a>
</g>
</g>
<!-- Node1&#45;&gt;Node2 -->
<g id="edge1_Node000001_Node000002" class="edge">
<title>Node1&#45;&gt;Node2</title>
<g id="a_edge1_Node000001_Node000002"><a xlink:title=" ">
<path fill="none" stroke="#63b8ff" d="M134.93,-52.45C142.75,-53.56 150.82,-54.7 158.86,-55.84"/>
<polygon fill="#63b8ff" stroke="#63b8ff" points="158.28,-59.3 168.68,-57.23 159.27,-52.37 158.28,-59.3"/>
</a>
</g>
</g>
<!-- Node5 -->
<g id="Node000005" class="node">
<title>Node5</title>
<g id="a_Node000005"><a xlink:href="../../de/d08/flash__data__handler_8c.html#a80b570a5b0c0a4e6c52f3e49be8e7481" target="_top" xlink:title=" ">
<polygon fill="white" stroke="#666666" points="300.12,-38 191.12,-38 191.12,0 300.12,0 300.12,-38"/>
<text xml:space="preserve" text-anchor="start" x="199.12" y="-23.55" font-family="Segoe UI" font-size="11.00">ram_circular_buffer</text>
<text xml:space="preserve" text-anchor="middle" x="245.62" y="-8.55" font-family="Segoe UI" font-size="11.00">_write</text>
</a>
</g>
</g>
<!-- Node1&#45;&gt;Node5 -->
<g id="edge4_Node000001_Node000005" class="edge">
<title>Node1&#45;&gt;Node5</title>
<g id="a_edge4_Node000001_Node000005"><a xlink:title=" ">
<path fill="none" stroke="#63b8ff" d="M134.93,-33.93C149.48,-31.95 164.86,-29.85 179.35,-27.88"/>
<polygon fill="#63b8ff" stroke="#63b8ff" points="179.81,-31.35 189.25,-26.54 178.87,-24.42 179.81,-31.35"/>
</a>
</g>
</g>
<!-- Node3 -->
<g id="Node000003" class="node">
<title>Node3</title>
<g id="a_Node000003"><a xlink:href="../../d5/d0d/group___data___handler.html#gad3f23b6f2c49aad2c372b9981489842d" target="_top" xlink:title="Notify data handler that a buffer threshold was crossed.">
<polygon fill="white" stroke="#666666" points="468,-115 356.75,-115 356.75,-77 468,-77 468,-115"/>
<text xml:space="preserve" text-anchor="start" x="364.75" y="-100.55" font-family="Segoe UI" font-size="11.00">data_handler_notify</text>
<text xml:space="preserve" text-anchor="middle" x="412.38" y="-85.55" font-family="Segoe UI" font-size="11.00">_threshold</text>
</a>
</g>
</g>
<!-- Node2&#45;&gt;Node3 -->
<g id="edge2_Node000002_Node000003" class="edge">
<title>Node2&#45;&gt;Node3</title>
<g id="a_edge2_Node000002_Node000003"><a xlink:title=" ">
<path fill="none" stroke="#63b8ff" d="M316.97,-79.96C326.36,-81.55 335.96,-83.18 345.28,-84.77"/>
<polygon fill="#63b8ff" stroke="#63b8ff" points="344.52,-88.19 354.97,-86.41 345.69,-81.29 344.52,-88.19"/>
</a>
</g>
</g>
<!-- Node4 -->
<g id="Node000004" class="node">
<title>Node4</title>
<g id="a_Node000004"><a xlink:href="../../de/d08/flash__data__handler_8c.html#a66bc3d1db16dca042e412bcd09420cf2" target="_top" xlink:title=" ">
<polygon fill="white" stroke="#666666" points="466.88,-59 357.88,-59 357.88,-21 466.88,-21 466.88,-59"/>
<text xml:space="preserve" text-anchor="start" x="365.88" y="-44.55" font-family="Segoe UI" font-size="11.00">ram_circular_buffer</text>
<text xml:space="preserve" text-anchor="middle" x="412.38" y="-29.55" font-family="Segoe UI" font-size="11.00">_available</text>
</a>
</g>
</g>
<!-- Node2&#45;&gt;Node4 -->
<g id="edge3_Node000002_Node000004" class="edge">
<title>Node2&#45;&gt;Node4</title>
<g id="a_edge3_Node000002_Node000004"><a xlink:title=" ">
<path fill="none" stroke="#63b8ff" d="M316.97,-56.04C326.72,-54.39 336.69,-52.69 346.33,-51.05"/>
<polygon fill="#63b8ff" stroke="#63b8ff" points="346.7,-54.54 355.97,-49.42 345.52,-47.64 346.7,-54.54"/>
</a>
</g>
</g>
</g>
</svg>
