<?xml version="1.0" encoding="UTF-8" standalone="no"?>
<!DOCTYPE svg PUBLIC "-//W3C//DTD SVG 1.1//EN"
 "http://www.w3.org/Graphics/SVG/1.1/DTD/svg11.dtd">
<!-- Generated by graphviz version 14.1.1 (20251213.1925)
 -->
<!-- Title: asm330lhhx_status_master_t Pages: 1 -->
<svg width="174pt" height="301pt"
 viewBox="0.00 0.00 174.00 301.00" xmlns="http://www.w3.org/2000/svg" xmlns:xlink="http://www.w3.org/1999/xlink">
<g id="graph0" class="graph" transform="scale(1 1) rotate(0) translate(4 297)">
<title>asm330lhhx_status_master_t</title>
<!-- Node1 -->
<g id="Node000001" class="node">
<title>Node1</title>
<g id="a_Node000001"><a xlink:title=" ">
<polygon fill="#999999" stroke="none" points="143.75,-61 0,-61 0,0 143.75,0 143.75,-61"/>
<text xml:space="preserve" text-anchor="start" x="4" y="-46.55" font-family="Segoe UI" font-size="11.00">asm330lhhx_status_master_t</text>
<text xml:space="preserve" text-anchor="start" x="70.38" y="-27.55" font-family="Segoe UI" font-size="11.00"> </text>
<text xml:space="preserve" text-anchor="start" x="70.38" y="-8.55" font-family="Segoe UI" font-size="11.00"> </text>
<polygon fill="#666666" stroke="#666666" points="0,-40 0,-40 143.75,-40 143.75,-40 0,-40"/>
<polygon fill="#666666" stroke="#666666" points="0,-21 0,-21 143.75,-21 143.75,-21 0,-21"/>
<polygon fill="none" stroke="#666666" points="0,0 0,-61 143.75,-61 143.75,0 0,0"/>
</a>
</g>
</g>
<!-- Node2 -->
<g id="Node000002" class="node">
<title>Node2</title>
<g id="a_Node000002"><a xlink:title=" ">
<polygon fill="white" stroke="none" points="92.38,-293 51.38,-293 51.38,-232 92.38,-232 92.38,-293"/>
<text xml:space="preserve" text-anchor="start" x="55.38" y="-278.55" font-family="Segoe UI" font-size="11.00">uint8_t</text>
<text xml:space="preserve" text-anchor="start" x="70.38" y="-259.55" font-family="Segoe UI" font-size="11.00"> </text>
<text xml:space="preserve" text-anchor="start" x="70.38" y="-240.55" font-family="Segoe UI" font-size="11.00"> </text>
<polygon fill="#666666" stroke="#666666" points="51.38,-272 51.38,-272 92.38,-272 92.38,-272 51.38,-272"/>
<polygon fill="#666666" stroke="#666666" points="51.38,-253 51.38,-253 92.38,-253 92.38,-253 51.38,-253"/>
<polygon fill="none" stroke="#666666" points="51.38,-232 51.38,-293 92.38,-293 92.38,-232 51.38,-232"/>
</a>
</g>
</g>
<!-- Node2&#45;&gt;Node1 -->
<g id="edge1_Node000001_Node000002" class="edge">
<title>Node2&#45;&gt;Node1</title>
<g id="a_edge1_Node000001_Node000002"><a xlink:title=" ">
<path fill="none" stroke="#63b8ff" d="M71.88,-232.37C71.88,-192.21 71.88,-119.6 71.88,-73.56"/>
<polygon fill="none" stroke="#63b8ff" points="71.88,-73.66 67.88,-67.66 71.88,-61.66 75.88,-67.66 71.88,-73.66"/>
</a>
</g>
<text xml:space="preserve" text-anchor="start" x="74.88" y="-200.55" font-family="Segoe UI" font-size="11.00" fill="grey">+not_used_01</text>
<text xml:space="preserve" text-anchor="start" x="74.88" y="-181.55" font-family="Segoe UI" font-size="11.00" fill="grey">+sens_hub_endop</text>
<text xml:space="preserve" text-anchor="start" x="74.88" y="-162.55" font-family="Segoe UI" font-size="11.00" fill="grey">+slave0_nack</text>
<text xml:space="preserve" text-anchor="start" x="74.88" y="-143.55" font-family="Segoe UI" font-size="11.00" fill="grey">+slave1_nack</text>
<text xml:space="preserve" text-anchor="start" x="74.88" y="-124.55" font-family="Segoe UI" font-size="11.00" fill="grey">+slave2_nack</text>
<text xml:space="preserve" text-anchor="start" x="74.88" y="-105.55" font-family="Segoe UI" font-size="11.00" fill="grey">+slave3_nack</text>
<text xml:space="preserve" text-anchor="start" x="74.88" y="-86.55" font-family="Segoe UI" font-size="11.00" fill="grey">+wr_once_done</text>
</g>
</g>
</svg>
