<?xml version="1.0" encoding="UTF-8" standalone="no"?>
<!DOCTYPE svg PUBLIC "-//W3C//DTD SVG 1.1//EN"
 "http://www.w3.org/Graphics/SVG/1.1/DTD/svg11.dtd">
<!-- Generated by graphviz version 14.1.1 (20251213.1925)
 -->
<!-- Title: data_handler_store_imu Pages: 1 -->
<svg width="617pt" height="207pt"
 viewBox="0.00 0.00 617.00 207.00" xmlns="http://www.w3.org/2000/svg" xmlns:xlink="http://www.w3.org/1999/xlink">
<g id="graph0" class="graph" transform="scale(1 1) rotate(0) translate(4 203)">
<title>data_handler_store_imu</title>
<!-- Node1 -->
<g id="Node000001" class="node">
<title>Node1</title>
<g id="a_Node000001"><a xlink:title=" ">
<polygon fill="#999999" stroke="#666666" points="130.75,-79.5 0,-79.5 0,-56.5 130.75,-56.5 130.75,-79.5"/>
<text xml:space="preserve" text-anchor="middle" x="65.38" y="-65.05" font-family="Segoe UI" font-size="11.00">data_handler_store_imu</text>
</a>
</g>
</g>
<!-- Node2 -->
<g id="Node000002" class="node">
<title>Node2</title>
<g id="a_Node000002"><a xlink:href="../../de/d08/flash__data__handler_8c.html#a6ecff56fe8781b68b800af67baf57ee5" target="_top" xlink:title=" ">
<polygon fill="white" stroke="#666666" points="317,-135.5 166.75,-135.5 166.75,-112.5 317,-112.5 317,-135.5"/>
<text xml:space="preserve" text-anchor="middle" x="241.88" y="-121.05" font-family="Segoe UI" font-size="11.00">check_and_notify_threshold</text>
</a>
</g>
</g>
<!-- Node1&#45;&gt;Node2 -->
<g id="edge1_Node000001_Node000002" class="edge">
<title>Node1&#45;&gt;Node2</title>
<g id="a_edge1_Node000001_Node000002"><a xlink:title=" ">
<path fill="none" stroke="#63b8ff" d="M103.38,-79.88C129.44,-88.24 164.56,-99.51 192.78,-108.57"/>
<polygon fill="#63b8ff" stroke="#63b8ff" points="191.59,-111.86 202.18,-111.58 193.73,-105.19 191.59,-111.86"/>
</a>
</g>
</g>
<!-- Node5 -->
<g id="Node000005" class="node">
<title>Node5</title>
<g id="a_Node000005"><a xlink:href="../../de/d08/flash__data__handler_8c.html#a6836d9b7dd5ea3ad06fe2ac9ec0c292d" target="_top" xlink:title=" ">
<polygon fill="white" stroke="#666666" points="304.62,-79.5 179.12,-79.5 179.12,-56.5 304.62,-56.5 304.62,-79.5"/>
<text xml:space="preserve" text-anchor="middle" x="241.88" y="-65.05" font-family="Segoe UI" font-size="11.00">distribute_data_packet</text>
</a>
</g>
</g>
<!-- Node1&#45;&gt;Node5 -->
<g id="edge4_Node000001_Node000005" class="edge">
<title>Node1&#45;&gt;Node5</title>
<g id="a_edge4_Node000001_Node000005"><a xlink:title=" ">
<path fill="none" stroke="#63b8ff" d="M130.86,-68C142.7,-68 155.15,-68 167.24,-68"/>
<polygon fill="#63b8ff" stroke="#63b8ff" points="167.18,-71.5 177.18,-68 167.18,-64.5 167.18,-71.5"/>
</a>
</g>
</g>
<!-- Node9 -->
<g id="Node000009" class="node">
<title>Node9</title>
<g id="a_Node000009"><a xlink:href="../../de/d08/flash__data__handler_8c.html#a80b570a5b0c0a4e6c52f3e49be8e7481" target="_top" xlink:title=" ">
<polygon fill="white" stroke="#666666" points="296.38,-38 187.38,-38 187.38,0 296.38,0 296.38,-38"/>
<text xml:space="preserve" text-anchor="start" x="195.38" y="-23.55" font-family="Segoe UI" font-size="11.00">ram_circular_buffer</text>
<text xml:space="preserve" text-anchor="middle" x="241.88" y="-8.55" font-family="Segoe UI" font-size="11.00">_write</text>
</a>
</g>
</g>
<!-- Node1&#45;&gt;Node9 -->
<g id="edge9_Node000001_Node000009" class="edge">
<title>Node1&#45;&gt;Node9</title>
<g id="a_edge9_Node000001_Node000009"><a xlink:title=" ">
<path fill="none" stroke="#63b8ff" d="M109.06,-56.01C129.27,-50.34 153.83,-43.44 176.25,-37.15"/>
<polygon fill="#63b8ff" stroke="#63b8ff" points="176.91,-40.6 185.6,-34.52 175.02,-33.86 176.91,-40.6"/>
</a>
</g>
</g>
<!-- Node3 -->
<g id="Node000003" class="node">
<title>Node3</title>
<g id="a_Node000003"><a xlink:href="../../d5/d0d/group___data___handler.html#gad3f23b6f2c49aad2c372b9981489842d" target="_top" xlink:title="Notify data handler that a buffer threshold was crossed.">
<polygon fill="white" stroke="#666666" points="477.38,-199 366.12,-199 366.12,-161 477.38,-161 477.38,-199"/>
<text xml:space="preserve" text-anchor="start" x="374.12" y="-184.55" font-family="Segoe UI" font-size="11.00">data_handler_notify</text>
<text xml:space="preserve" text-anchor="middle" x="421.75" y="-169.55" font-family="Segoe UI" font-size="11.00">_threshold</text>
</a>
</g>
</g>
<!-- Node2&#45;&gt;Node3 -->
<g id="edge2_Node000002_Node000003" class="edge">
<title>Node2&#45;&gt;Node3</title>
<g id="a_edge2_Node000002_Node000003"><a xlink:title=" ">
<path fill="none" stroke="#63b8ff" d="M280.6,-135.88C302.18,-142.67 329.88,-151.39 354.94,-159.28"/>
<polygon fill="#63b8ff" stroke="#63b8ff" points="353.83,-162.6 364.42,-162.27 355.93,-155.92 353.83,-162.6"/>
</a>
</g>
</g>
<!-- Node4 -->
<g id="Node000004" class="node">
<title>Node4</title>
<g id="a_Node000004"><a xlink:href="../../de/d08/flash__data__handler_8c.html#a66bc3d1db16dca042e412bcd09420cf2" target="_top" xlink:title=" ">
<polygon fill="white" stroke="#666666" points="476.25,-143 367.25,-143 367.25,-105 476.25,-105 476.25,-143"/>
<text xml:space="preserve" text-anchor="start" x="375.25" y="-128.55" font-family="Segoe UI" font-size="11.00">ram_circular_buffer</text>
<text xml:space="preserve" text-anchor="middle" x="421.75" y="-113.55" font-family="Segoe UI" font-size="11.00">_available</text>
</a>
</g>
</g>
<!-- Node2&#45;&gt;Node4 -->
<g id="edge3_Node000002_Node000004" class="edge">
<title>Node2&#45;&gt;Node4</title>
<g id="a_edge3_Node000002_Node000004"><a xlink:title=" ">
<path fill="none" stroke="#63b8ff" d="M317.28,-124C330.03,-124 343.2,-124 355.69,-124"/>
<polygon fill="#63b8ff" stroke="#63b8ff" points="355.42,-127.5 365.42,-124 355.42,-120.5 355.42,-127.5"/>
</a>
</g>
</g>
<!-- Node6 -->
<g id="Node000006" class="node">
<title>Node6</title>
<g id="a_Node000006"><a xlink:href="../../dd/d01/group___f_s_m.html#ga351aabdf620e21f15f86191d9c1181f8" target="_top" xlink:title="Check if sensor data should be queued to estimator.">
<polygon fill="white" stroke="#666666" points="482.62,-87 360.88,-87 360.88,-49 482.62,-49 482.62,-87"/>
<text xml:space="preserve" text-anchor="start" x="368.88" y="-72.55" font-family="Segoe UI" font-size="11.00">fsm_should_queue_to</text>
<text xml:space="preserve" text-anchor="middle" x="421.75" y="-57.55" font-family="Segoe UI" font-size="11.00">_estimator</text>
</a>
</g>
</g>
<!-- Node5&#45;&gt;Node6 -->
<g id="edge5_Node000005_Node000006" class="edge">
<title>Node5&#45;&gt;Node6</title>
<g id="a_edge5_Node000005_Node000006"><a xlink:title=" ">
<path fill="none" stroke="#63b8ff" d="M305.09,-68C319.46,-68 334.85,-68 349.57,-68"/>
<polygon fill="#63b8ff" stroke="#63b8ff" points="349.16,-71.5 359.16,-68 349.16,-64.5 349.16,-71.5"/>
</a>
</g>
</g>
<!-- Node8 -->
<g id="Node000008" class="node">
<title>Node8</title>
<g id="a_Node000008"><a xlink:href="../../dd/d01/group___f_s_m.html#ga44d061da7759d1b7f5a852bd2b4feca5" target="_top" xlink:title="Check if data should be logged to SD card.">
<polygon fill="white" stroke="#666666" points="490.5,-30.5 353,-30.5 353,-7.5 490.5,-7.5 490.5,-30.5"/>
<text xml:space="preserve" text-anchor="middle" x="421.75" y="-16.05" font-family="Segoe UI" font-size="11.00">fsm_should_queue_to_sd</text>
</a>
</g>
</g>
<!-- Node5&#45;&gt;Node8 -->
<g id="edge7_Node000005_Node000008" class="edge">
<title>Node5&#45;&gt;Node8</title>
<g id="a_edge7_Node000005_Node000008"><a xlink:title=" ">
<path fill="none" stroke="#63b8ff" d="M286.39,-56.01C310.49,-49.37 340.67,-41.06 366.32,-33.99"/>
<polygon fill="#63b8ff" stroke="#63b8ff" points="367.21,-37.38 375.92,-31.35 365.35,-30.63 367.21,-37.38"/>
</a>
</g>
</g>
<!-- Node7 -->
<g id="Node000007" class="node">
<title>Node7</title>
<g id="a_Node000007"><a xlink:href="../../dd/d01/group___f_s_m.html#gaf9c5022aa913bff77a6fdf0dfa342797" target="_top" xlink:title="Get current FSM state (thread&#45;safe).">
<polygon fill="white" stroke="#666666" points="609.25,-54.5 526.5,-54.5 526.5,-31.5 609.25,-31.5 609.25,-54.5"/>
<text xml:space="preserve" text-anchor="middle" x="567.88" y="-40.05" font-family="Segoe UI" font-size="11.00">fsm_get_state</text>
</a>
</g>
</g>
<!-- Node6&#45;&gt;Node7 -->
<g id="edge6_Node000006_Node000007" class="edge">
<title>Node6&#45;&gt;Node7</title>
<g id="a_edge6_Node000006_Node000007"><a xlink:title=" ">
<path fill="none" stroke="#63b8ff" d="M483.04,-57.54C493.57,-55.71 504.45,-53.83 514.75,-52.04"/>
<polygon fill="#63b8ff" stroke="#63b8ff" points="515.32,-55.49 524.58,-50.34 514.13,-48.6 515.32,-55.49"/>
</a>
</g>
</g>
<!-- Node8&#45;&gt;Node7 -->
<g id="edge8_Node000008_Node000007" class="edge">
<title>Node8&#45;&gt;Node7</title>
<g id="a_edge8_Node000008_Node000007"><a xlink:title=" ">
<path fill="none" stroke="#63b8ff" d="M490.59,-30.3C498.74,-31.65 506.95,-33.02 514.82,-34.33"/>
<polygon fill="#63b8ff" stroke="#63b8ff" points="514.12,-37.76 524.56,-35.95 515.27,-30.86 514.12,-37.76"/>
</a>
</g>
</g>
</g>
</svg>
